
<svg width="28px" height="28px" viewBox="0 0 28 28" version="1.1" xmlns="http://www.w3.org/2000/svg" xmlns:xlink="http://www.w3.org/1999/xlink">
    <!-- Generator: Sketch 48.2 (47327) - http://www.bohemiancoding.com/sketch -->
    <desc>Created with Sketch.</desc>
    <defs></defs>
    <g id="Page-1" stroke="none" stroke-width="1" fill="none" fill-rule="evenodd">
        <g id="a002a002" fill-rule="nonzero">
            <path d="M0,25.6 L5,25.6 L5,27.2 L0,27.2 L0,25.6 Z M13.0000006,20.0000007 L13.0000006,16.0000007 L15.0000006,16.0000007 L15.0000006,20.0000007 L13.0000006,20.0000007 Z M23,25.6 L28,25.6 L28,27.2 L23,27.2 L23,25.6 Z M4.4262,18.2357747 L7.2546,20.4984946 L5.8404,21.6298546 L3.012,19.3671347 L4.4262,18.2357747 Z M20.6013479,20.6531763 L23.4297479,18.3904563 L24.8439479,19.5218163 L22.0155479,21.7845363 L20.6013479,20.6531763 Z M20.977,28 L7.023,28 C7.014,27.8672 7,27.7352 7,27.6 C7,24.2864 10.134,21.6000001 14,21.6000001 C17.866,21.6000001 21,24.2864 21,27.6 C21,27.7352 20.987,27.8672 20.977,28 Z" id="Rectangle-path" fill="#FCDE00" transform="translate(14.000000, 22.000000) scale(-1, 1) rotate(-180.000000) translate(-14.000000, -22.000000) "></path>
            <path d="M19.6666667,4.26086957 C19.4666667,4.26086957 19.27,4.27304348 19.0753333,4.29252174 C18.2946667,1.81513043 15.798,0 12.8333333,0 C9.24333333,0 6.33333333,2.65695652 6.33333333,5.93478261 C6.33333333,6.20869565 6.36066667,6.47713043 6.40066667,6.74130435 C4.47666667,7.00608696 3,8.51747826 3,10.3478261 C3,12.3644348 4.79133333,14 7,14 L19.6666667,14 C22.612,14 25,11.8196522 25,9.13043478 C25,6.44121739 22.612,4.26086957 19.6666667,4.26086957 Z" id="Mostly-Cloudy-Icon" fill="#FFFFFF" opacity="0.8"></path>
        </g>
    </g>
</svg>