
<svg width="43px" height="34px" viewBox="0 0 43 34" version="1.1" xmlns="http://www.w3.org/2000/svg" xmlns:xlink="http://www.w3.org/1999/xlink">
    <!-- Generator: Sketch 48.2 (47327) - http://www.bohemiancoding.com/sketch -->
    <desc>Created with Sketch.</desc>
    <defs></defs>
    <g id="Page-1" stroke="none" stroke-width="1" fill="none" fill-rule="evenodd">
        <g id="a003a003" fill-rule="nonzero">
            <path d="M17,25 C12.581722,25 9,21.418278 9,17 C9,12.581722 12.581722,9 17,9 C21.418278,9 25,12.581722 25,17 C25,21.418278 21.418278,25 17,25 Z M16,0 L18,0 L18,6 L16,6 L16,0 Z M16,28 L18,28 L18,34 L16,34 L16,28 Z M7.00000001e-07,18.0000007 L7.00000001e-07,16.0000007 L6.0000007,16.0000007 L6.0000007,18.0000007 L7.00000001e-07,18.0000007 Z M28.0000007,18.0000007 L28.0000007,16.0000007 L34.0000007,16.0000007 L34.0000007,18.0000007 L28.0000007,18.0000007 Z M4.7725968,6.38785 L6.1867968,4.97365 L9.7222968,8.50915 L8.3080968,9.92335 L4.7725968,6.38785 Z M23.8643032,25.48065 L25.2785032,24.06645 L28.8140032,27.60195 L27.3998032,29.01615 L23.8643032,25.48065 Z M6.3878032,29.22695 L4.9736032,27.81275 L8.5091032,24.27725 L9.9233032,25.69145 L6.3878032,29.22695 Z M25.4806968,10.13705 L24.0664968,8.72285 L27.6019968,5.18735 L29.0161968,6.60155 L25.4806968,10.13705 Z" id="Mostly-Sunny-Icon" fill="#FCDE00"></path>
            <path d="M43,27.2142857 C43,23.4658571 39.9787,20.4285714 36.25,20.4285714 C36.1168,20.4285714 35.9863,20.4412381 35.8549,20.4484762 C34.8235,17.2854286 31.8661,15 28.375,15 C24.0262,15 20.5,18.5448571 20.5,22.9166667 C20.5,23.0198095 20.5117,23.1202381 20.5153,23.2224762 C17.9548,23.6477143 16,25.8770476 16,28.5714286 C16,31.5689048 18.4183,34 21.4,34 L36.7,34 L36.7,33.977381 C40.2172,33.7439524 43,30.8098095 43,27.2142857 Z" id="Shape" fill="#FFFFFF" opacity="0.8"></path>
        </g>
    </g>
</svg>