
<svg width="40px" height="43px" viewBox="0 0 40 43" version="1.1" xmlns="http://www.w3.org/2000/svg" xmlns:xlink="http://www.w3.org/1999/xlink">
    <!-- Generator: Sketch 48.2 (47327) - http://www.bohemiancoding.com/sketch -->
    <desc>Created with Sketch.</desc>
    <defs></defs>
    <g id="Page-1" stroke="none" stroke-width="1" fill="none" fill-rule="evenodd">
        <g id="scattered-thunderstorm" fill-rule="nonzero">
            <path d="M11.7263042,36.9365034 L14.0036417,33.8012409 L15.4195667,34.8297159 L13.1422292,37.9649784 L11.7263042,36.9365034 Z M16.8382359,40.9596013 L19.1155734,37.8243388 L20.5314984,38.8528138 L18.2541609,41.9880763 L16.8382359,40.9596013 Z M25.7584715,38.9880635 L28.035809,35.852801 L29.451734,36.881276 L27.1743965,40.0165385 L25.7584715,38.9880635 Z M31.9977605,38.2747197 L34.275873,35.1402322 L35.691448,36.1690572 L33.4133355,39.3035447 L31.9977605,38.2747197 Z" id="Rectangle-path" fill="#5AC8FA"></path>
            <polygon id="Shape" fill="#F8E71C" points="21.5 22 28.5 22 27 28 30.5 28 21.75 43 22.5 33 19 33"></polygon>
            <path d="M32.5,17 C32.352,17 32.207,17.014 32.061,17.022 C30.915,13.526 27.629,11 23.75,11 C18.918,11 15,14.918 15,19.75 C15,19.864 15.013,19.975 15.017,20.088 C12.172,20.558 10,23.023 10,26 C10,29.313 12.687,32 16,32 L17.177,32 L19.904,20 L31.062,20 L29.562,26 L33.983,26 L30.483,32 L33.001,32 L33.001,31.975 C36.909,31.717 40.001,28.474 40.001,24.5 C40,20.358 36.643,17 32.5,17 Z" id="Shape" fill="#FFFFFF" opacity="0.8"></path>
            <path d="M14,0 L16,0 L16,5 L14,5 L14,0 Z M6.90026354e-07,16.0000007 L6.90026354e-07,14.0000007 L5.00000069,14.0000007 L5.00000069,16.0000007 L6.90026354e-07,16.0000007 Z M3.4785362,5.10285 L4.8927362,3.68865 L8.4282362,7.22415 L7.0140362,8.63835 L3.4785362,5.10285 Z M5.1029638,26.52035 L3.6887638,25.10615 L7.2242638,21.57065 L8.6384638,22.98485 L5.1029638,26.52035 Z M22.7804362,8.84455 L21.3662362,7.43035 L24.9017362,3.89485 L26.3159362,5.30905 L22.7804362,8.84455 Z M10.42,20.286 C8.94,19.002 8,17.113 8,14.999 C8,11.133 11.134,7.999 15,7.999 C16.803,7.999 18.441,8.687 19.682,9.806 C16.119,11.27 13.505,14.589 13.066,18.559 C12.058,18.953 11.172,19.554 10.42,20.286 Z" id="Rectangle-path" fill="#FCDE00"></path>
        </g>
    </g>
</svg>