
<svg width="46px" height="34px" viewBox="0 0 46 34" version="1.1" xmlns="http://www.w3.org/2000/svg" xmlns:xlink="http://www.w3.org/1999/xlink">
    <!-- Generator: Sketch 48.2 (47327) - http://www.bohemiancoding.com/sketch -->
    <desc>Created with Sketch.</desc>
    <defs></defs>
    <g id="Page-1" stroke="none" stroke-width="1" fill="none" fill-rule="evenodd">
        <g id="a005a005" fill-rule="nonzero">
            <path d="M46,26.5 C46,22.357 42.643,19 38.5,19 C38.352,19 38.207,19.014 38.061,19.022 C36.915,15.526 33.629,13 29.75,13 C24.918,13 21,16.918 21,21.75 C21,21.864 21.013,21.975 21.017,22.088 C18.172,22.558 16,25.022 16,28 C16,31.313 18.687,34 22,34 L39,34 L39,33.975 C42.908,33.717 46,30.474 46,26.5 Z" id="Shape" fill="#FFFFFF" opacity="0.8"></path>
            <g id="a014a014" opacity="0.79761096" fill="#FFFFFF">
                <path d="M12.1212121,3.34782609 C11.9757576,3.34782609 11.8327273,3.3573913 11.6911515,3.37269565 C11.123394,1.42617391 9.30763636,0 7.15151513,0 C4.54060604,0 2.4242424,2.0876087 2.4242424,4.66304348 C2.4242424,4.87826087 2.44412124,5.08917391 2.47321215,5.29673913 C1.07393942,5.50478261 0,6.69230435 0,8.13043477 C0,9.71491305 1.30278785,11 2.90909091,11 L12.1212121,11 C14.2632727,11 16,9.28686953 16,7.17391305 C16,5.06095652 14.2632727,3.34782609 12.1212121,3.34782609 Z" id="Mostly-Cloudy-Icon"></path>
            </g>
            <path d="M19,2 L21,2 L21,7 L19,7 L19,2 Z M5.00000066,18.0000007 L5.00000066,16.0000007 L10.0000007,16.0000007 L10.0000007,18.0000007 L5.00000066,18.0000007 Z M8.4781362,7.09435 L9.8923362,5.68015 L13.4278362,9.21565 L12.0136362,10.62985 L8.4781362,7.09435 Z M10.0944638,28.52325 L8.6802638,27.10905 L12.2157638,23.57355 L13.6299638,24.98775 L10.0944638,28.52325 Z M27.7720362,10.84355 L26.3578362,9.42935 L29.8933362,5.89385 L31.3075362,7.30805 L27.7720362,10.84355 Z M15.989,22.732 C14.184,21.466 13,19.373 13,17 C13,13.134 16.134,10 20,10 C21.962,10 23.732,10.808 25.003,12.109 C21.789,13.698 19.476,16.845 19.065,20.559 C17.859,21.031 16.817,21.788 15.989,22.732 Z" id="Rectangle-path" fill="#FCDE00"></path>
        </g>
    </g>
</svg>