
<svg width="46px" height="47px" viewBox="0 0 46 47" version="1.1" xmlns="http://www.w3.org/2000/svg" xmlns:xlink="http://www.w3.org/1999/xlink">
    <!-- Generator: Sketch 48.2 (47327) - http://www.bohemiancoding.com/sketch -->
    <desc>Created with Sketch.</desc>
    <defs></defs>
    <g id="Page-1" stroke="none" stroke-width="1" fill="none" fill-rule="evenodd">
        <g id="a005a005" fill-rule="nonzero">
            <path d="M13.701367,42.0693726 L17.742492,36.5074976 L19.157433,37.5355598 L15.116308,43.0974348 L13.701367,42.0693726 Z M26.1620117,42.6511069 L30.8652117,36.1791069 L32.2809617,37.2079319 L27.5777617,43.6799319 L26.1620117,42.6511069 Z M30.4886862,44.715845 L36.6605862,36.221345 L38.0763362,37.249995 L31.9044362,45.744495 L30.4886862,44.715845 Z M18.7628359,45.2962433 L23.6138359,38.6228183 L25.0294109,39.6518183 L20.1784109,46.3252433 L18.7628359,45.2962433 Z M39.1858888,43.5510984 L40.9495888,41.1240984 L42.3653388,42.1529234 L40.6016388,44.5799234 L39.1858888,43.5510984 Z" id="Rectangle-path" fill="#5AC8FA"></path>
            <path d="M46,26.5 C46,22.357 42.643,19 38.5,19 C38.352,19 38.207,19.014 38.061,19.022 C36.915,15.526 33.629,13 29.75,13 C24.918,13 21,16.918 21,21.75 C21,21.864 21.013,21.975 21.017,22.088 C18.172,22.558 16,25.022 16,28 C16,31.313 18.687,34 22,34 L39,34 L39,33.975 C42.908,33.717 46,30.474 46,26.5 Z" id="Shape" fill="#FFFFFF" opacity="0.8"></path>
            <path d="M19,2 L21,2 L21,7 L19,7 L19,2 Z M5.00000066,18.0000007 L5.00000066,16.0000007 L10.0000007,16.0000007 L10.0000007,18.0000007 L5.00000066,18.0000007 Z M8.4781362,7.09435 L9.8923362,5.68015 L13.4278362,9.21565 L12.0136362,10.62985 L8.4781362,7.09435 Z M10.0944638,28.52325 L8.6802638,27.10905 L12.2157638,23.57355 L13.6299638,24.98775 L10.0944638,28.52325 Z M27.7720362,10.84355 L26.3578362,9.42935 L29.8933362,5.89385 L31.3075362,7.30805 L27.7720362,10.84355 Z M15.989,22.732 C14.184,21.466 13,19.373 13,17 C13,13.134 16.134,10 20,10 C21.962,10 23.732,10.808 25.003,12.109 C21.789,13.698 19.476,16.845 19.065,20.559 C17.859,21.031 16.817,21.788 15.989,22.732 Z" id="Rectangle-path" fill="#FCDE00"></path>
            <g id="a014a014" opacity="0.79761096" fill="#FFFFFF">
                <path d="M17.4242425,4.86956522 C17.2151516,4.86956522 17.0095455,4.88347826 16.8060303,4.90573913 C15.9898788,2.07443478 13.3797273,0 10.280303,0 C6.52712118,0 3.48484845,3.03652174 3.48484845,6.78260869 C3.48484845,7.09565217 3.51342428,7.40243478 3.55524246,7.70434783 C1.54378791,8.00695652 0,9.73426087 0,11.8260869 C0,14.1307826 1.87275754,16 4.18181818,16 L17.4242425,16 C20.5034545,16 23,13.5081739 23,10.4347826 C23,7.36139131 20.5034545,4.86956522 17.4242425,4.86956522 Z" id="Mostly-Cloudy-Icon"></path>
            </g>
        </g>
    </g>
</svg>