
<svg width="37px" height="23px" viewBox="0 0 37 23" version="1.1" xmlns="http://www.w3.org/2000/svg" xmlns:xlink="http://www.w3.org/1999/xlink">
    <!-- Generator: Sketch 48.2 (47327) - http://www.bohemiancoding.com/sketch -->
    <desc>Created with Sketch.</desc>
    <defs></defs>
    <g id="Page-1" stroke="none" stroke-width="1" fill="none" fill-rule="evenodd" opacity="0.8">
        <g id="a013a013" fill="#FFFFFF" fill-rule="nonzero">
            <g id="Page-1">
                <g id="a014a014" opacity="0.79761096" transform="translate(15.000000, 0.000000)">
                    <path d="M16.6666667,4.56521739 C16.4666667,4.56521739 16.27,4.57826087 16.0753333,4.59913043 C15.2946667,1.94478261 12.798,0 9.8333333,0 C6.2433333,0 3.3333333,2.84673913 3.3333333,6.35869565 C3.3333333,6.65217391 3.3606667,6.93978261 3.4006667,7.22282609 C1.4766667,7.50652174 0,9.12586957 0,11.0869565 C0,13.2476087 1.7913333,15 4,15 L16.6666667,15 C19.612,15 22,12.663913 22,9.7826087 C22,6.90130435 19.612,4.56521739 16.6666667,4.56521739 Z" id="Mostly-Cloudy-Icon"></path>
                </g>
                <path d="M25,7 C24.7,7 24.405,7.02 24.113,7.052 C22.942,2.982 19.197,0 14.75,0 C9.365,0 5,4.365 5,9.75 C5,10.2 5.041,10.641 5.101,11.075 C2.215,11.51 0,13.993 0,17 C0,20.313 2.687,23 6,23 L25,23 C29.418,23 33,19.418 33,15 C33,10.582 29.418,7 25,7 Z" id="Mostly-Cloudy-Icon" opacity="0.802706069"></path>
            </g>
        </g>
    </g>
</svg>