
<svg width="37px" height="36px" viewBox="0 0 37 36" version="1.1" xmlns="http://www.w3.org/2000/svg" xmlns:xlink="http://www.w3.org/1999/xlink">
    <!-- Generator: Sketch 48.2 (47327) - http://www.bohemiancoding.com/sketch -->
    <desc>Created with Sketch.</desc>
    <defs></defs>
    <g id="Page-1" stroke="none" stroke-width="1" fill="none" fill-rule="evenodd">
        <g id="a012a012" fill-rule="nonzero">
            <path d="M1.701367,31.0693726 L5.742492,25.5074976 L7.157433,26.5355598 L3.116308,32.0974348 L1.701367,31.0693726 Z M14.1620117,31.6511069 L18.8652117,25.1791069 L20.2809617,26.2079319 L15.5777617,32.6799319 L14.1620117,31.6511069 Z M18.4886862,33.715845 L24.6605862,25.221345 L26.0763362,26.249995 L19.9044362,34.744495 L18.4886862,33.715845 Z M6.7628359,34.2962433 L11.6138359,27.6228183 L13.0294109,28.6518183 L8.1784109,35.3252433 L6.7628359,34.2962433 Z M27.1858888,32.5510984 L28.9495888,30.1240984 L30.3653388,31.1529234 L28.6016388,33.5799234 L27.1858888,32.5510984 Z" id="Rectangle-path" fill="#5AC8FA"></path>
            <path d="M31.6666667,4.56521739 C31.4666667,4.56521739 31.27,4.57826087 31.0753333,4.59913043 C30.2946667,1.94478261 27.798,0 24.8333333,0 C21.2433333,0 18.3333333,2.84673913 18.3333333,6.35869565 C18.3333333,6.65217391 18.3606667,6.93978261 18.4006667,7.22282609 C16.4766667,7.50652174 15,9.12586957 15,11.0869565 C15,13.2476087 16.7913333,15 19,15 L31.6666667,15 C34.612,15 37,12.663913 37,9.7826087 C37,6.90130435 34.612,4.56521739 31.6666667,4.56521739 Z" id="Mostly-Cloudy-Icon" fill="#FFFFFF" opacity="0.8"></path>
            <path d="M25,7 C24.7,7 24.405,7.02 24.113,7.052 C22.942,2.982 19.197,0 14.75,0 C9.365,0 5,4.365 5,9.75 C5,10.2 5.041,10.641 5.101,11.075 C2.215,11.51 0,13.993 0,17 C0,20.313 2.687,23 6,23 L25,23 C29.418,23 33,19.418 33,15 C33,10.582 29.418,7 25,7 Z" id="Mostly-Cloudy-Icon" fill="#FFFFFF" opacity="0.8"></path>
        </g>
    </g>
</svg>