
<svg width="37px" height="31px" viewBox="0 0 37 31" version="1.1" xmlns="http://www.w3.org/2000/svg" xmlns:xlink="http://www.w3.org/1999/xlink">
    <!-- Generator: Sketch 48.2 (47327) - http://www.bohemiancoding.com/sketch -->
    <desc>Created with Sketch.</desc>
    <defs></defs>
    <g id="Page-1" stroke="none" stroke-width="1" fill="none" fill-rule="evenodd">
        <g id="a012a012" fill-rule="nonzero">
            <path d="M2.2313317,27.6025507 L3.8162317,24.6227632 L5.3613067,25.4445632 L3.7764067,28.4243507 L2.2313317,27.6025507 Z M10.5947027,27.4846796 L12.1796027,24.5048921 L13.7246777,25.3266921 L12.1397777,28.3064796 L10.5947027,27.4846796 Z M17.4809377,29.5776895 L19.0655002,26.597902 L20.6105752,27.419527 L19.0260127,30.3993145 L17.4809377,29.5776895 Z M23.5485262,28.7020398 L25.1330887,25.7222523 L26.6781637,26.5438773 L25.0936012,29.5236648 L23.5485262,28.7020398 Z" id="Rectangle-path" fill="#5AC8FA"></path>
            <path d="M31.6666667,4.56521739 C31.4666667,4.56521739 31.27,4.57826087 31.0753333,4.59913043 C30.2946667,1.94478261 27.798,0 24.8333333,0 C21.2433333,0 18.3333333,2.84673913 18.3333333,6.35869565 C18.3333333,6.65217391 18.3606667,6.93978261 18.4006667,7.22282609 C16.4766667,7.50652174 15,9.12586957 15,11.0869565 C15,13.2476087 16.7913333,15 19,15 L31.6666667,15 C34.612,15 37,12.663913 37,9.7826087 C37,6.90130435 34.612,4.56521739 31.6666667,4.56521739 Z" id="Mostly-Cloudy-Icon" fill="#FFFFFF" opacity="0.8"></path>
            <path d="M25,7 C24.7,7 24.405,7.02 24.113,7.052 C22.942,2.982 19.197,0 14.75,0 C9.365,0 5,4.365 5,9.75 C5,10.2 5.041,10.641 5.101,11.075 C2.215,11.51 0,13.993 0,17 C0,20.313 2.687,23 6,23 L25,23 C29.418,23 33,19.418 33,15 C33,10.582 29.418,7 25,7 Z" id="Mostly-Cloudy-Icon" fill="#FFFFFF" opacity="0.8"></path>
        </g>
    </g>
</svg>