
<svg width="37px" height="36px" viewBox="0 0 37 36" version="1.1" xmlns="http://www.w3.org/2000/svg" xmlns:xlink="http://www.w3.org/1999/xlink">
    <!-- Generator: Sketch 48.2 (47327) - http://www.bohemiancoding.com/sketch -->
    <desc>Created with Sketch.</desc>
    <defs></defs>
    <g id="Page-1" stroke="none" stroke-width="1" fill="none" fill-rule="evenodd">
        <g id="a012a012" fill-rule="nonzero">
            <path d="M1.688767,31.0591726 L5.729892,25.4972976 L7.144833,26.5253598 L3.103708,32.0872348 L1.688767,31.0591726 Z M22.7147698,31.0412826 L26.7558948,25.4794076 L28.1716448,26.5080576 L24.1305198,32.0699326 L22.7147698,31.0412826 Z M4.9570818,33.6160438 L11.1289818,25.1215438 L12.5447318,26.1501938 L6.3728318,34.6446938 L4.9570818,33.6160438 Z M11.2614006,32.7362378 L16.5516006,25.4552378 L17.9673506,26.4838878 L12.6771506,33.7648878 L11.2614006,32.7362378 Z M15.8052946,34.3095178 L22.1241446,25.6127678 L23.5398946,26.6414178 L17.2210446,35.3381678 L15.8052946,34.3095178 Z" id="Rectangle-path" fill="#5AC8FA"></path>
            <path d="M31.6666667,4.56521739 C31.4666667,4.56521739 31.27,4.57826087 31.0753333,4.59913043 C30.2946667,1.94478261 27.798,0 24.8333333,0 C21.2433333,0 18.3333333,2.84673913 18.3333333,6.35869565 C18.3333333,6.65217391 18.3606667,6.93978261 18.4006667,7.22282609 C16.4766667,7.50652174 15,9.12586957 15,11.0869565 C15,13.2476087 16.7913333,15 19,15 L31.6666667,15 C34.612,15 37,12.663913 37,9.7826087 C37,6.90130435 34.612,4.56521739 31.6666667,4.56521739 Z" id="Mostly-Cloudy-Icon" fill="#FFFFFF" opacity="0.8"></path>
            <path d="M25,7 C24.7,7 24.405,7.02 24.113,7.052 C22.942,2.982 19.197,0 14.75,0 C9.365,0 5,4.365 5,9.75 C5,10.2 5.041,10.641 5.101,11.075 C2.215,11.51 0,13.993 0,17 C0,20.313 2.687,23 6,23 L25,23 C29.418,23 33,19.418 33,15 C33,10.582 29.418,7 25,7 Z" id="Mostly-Cloudy-Icon" fill="#FFFFFF" opacity="0.8"></path>
        </g>
    </g>
</svg>