
<svg width="37px" height="36px" viewBox="0 0 37 36" version="1.1" xmlns="http://www.w3.org/2000/svg" xmlns:xlink="http://www.w3.org/1999/xlink">
    <!-- Generator: Sketch 48.2 (47327) - http://www.bohemiancoding.com/sketch -->
    <desc>Created with Sketch.</desc>
    <defs></defs>
    <g id="Page-1" stroke="none" stroke-width="1" fill="none" fill-rule="evenodd">
        <g id="a012a012" fill-rule="nonzero">
            <path d="M1.310498,28.2801864 L4.543398,23.8306864 L5.959148,24.8593364 L2.726248,29.3088364 L1.310498,28.2801864 Z M6.5407658,33.864544 L10.0687658,29.011144 L11.4843408,30.040144 L7.9563408,34.893544 L6.5407658,33.864544 Z M18.0555235,34.491097 L23.715986,26.706397 L25.1305772,27.7349839 L19.4701147,35.5196839 L18.0555235,34.491097 Z M24.6253818,30.8525762 L27.8582818,26.4030762 L29.2740318,27.4317262 L26.0411318,31.8812262 L24.6253818,30.8525762 Z" id="Rectangle-path" fill="#5AC8FA"></path>
            <path d="M31.6666667,4.56521739 C31.4666667,4.56521739 31.27,4.57826087 31.0753333,4.59913043 C30.2946667,1.94478261 27.798,0 24.8333333,0 C21.2433333,0 18.3333333,2.84673913 18.3333333,6.35869565 C18.3333333,6.65217391 18.3606667,6.93978261 18.4006667,7.22282609 C16.4766667,7.50652174 15,9.12586957 15,11.0869565 C15,13.2476087 16.7913333,15 19,15 L31.6666667,15 C34.612,15 37,12.663913 37,9.7826087 C37,6.90130435 34.612,4.56521739 31.6666667,4.56521739 Z" id="Mostly-Cloudy-Icon" fill="#FFFFFF" opacity="0.8"></path>
            <polygon id="Shape" fill="#F8E71C" points="13 12 20 12 18.5 18 22 18 13.25 33 14 23 10.5 23"></polygon>
            <path d="M25,7 C24.7,7 24.405,7.02 24.113,7.052 C22.942,2.981 19.197,0 14.75,0 C9.365,0 5,4.365 5,9.75 C5,10.2 5.041,10.641 5.101,11.074 C2.215,11.51 0,13.993 0,17 C0,20.313 2.687,23 6,23 L8.449,23 L8.55,22.557 L11.05,11.557 L11.404,10 L13.001,10 L20.001,10 L22.563,10 L21.942,12.485 L21.063,16 L22.001,16 L25.483,16 L23.728,19.008 L21.399,23 L25.001,23 C29.419,23 33.001,19.418 33.001,15 C33.001,10.582 29.418,7 25,7 Z" id="Shape" fill="#FFFFFF" opacity="0.8"></path>
        </g>
    </g>
</svg>