
<svg width="35px" height="32px" viewBox="0 0 35 32" version="1.1" xmlns="http://www.w3.org/2000/svg" xmlns:xlink="http://www.w3.org/1999/xlink">
    <!-- Generator: Sketch 48.2 (47327) - http://www.bohemiancoding.com/sketch -->
    <desc>Created with Sketch.</desc>
    <defs></defs>
    <g id="Page-1" stroke="none" stroke-width="1" fill="none" fill-rule="evenodd">
        <g id="b001b001" fill="#F8E71C" fill-rule="nonzero">
            <path d="M23,25 C24.169,25 25.296,24.831 26.373,24.542 C24.024,28.977 19.367,32 14,32 C6.268,32 0,25.732 0,18 C0,10.7 5.588,4.712 12.719,4.064 C11.021,6.262 10,9.009 10,12 C10,19.18 15.82,25 23,25 Z M20.5,5 L19.907,3.617 C19.806,3.382 19.618,3.193 19.383,3.093 L18,2.5 L19.383,1.907 C19.618,1.806 19.807,1.618 19.907,1.383 L20.5,0 L21.093,1.383 C21.194,1.618 21.382,1.807 21.617,1.907 L23,2.5 L21.617,3.093 C21.382,3.194 21.193,3.382 21.093,3.617 L20.5,5 Z M29.5,12.5 L28.315,9.735 C28.113,9.263 27.736,8.886 27.264,8.684 L24.499,7.499 L27.264,6.314 C27.736,6.112 28.113,5.735 28.315,5.263 L29.5,2.498 L30.685,5.263 C30.887,5.735 31.264,6.112 31.736,6.314 L34.501,7.499 L31.736,8.684 C31.264,8.886 30.887,9.263 30.685,9.735 L29.5,12.5 Z" id="Clear-Night-Icon"></path>
        </g>
    </g>
</svg>