
<svg width="35px" height="36px" viewBox="0 0 35 36" version="1.1" xmlns="http://www.w3.org/2000/svg" xmlns:xlink="http://www.w3.org/1999/xlink">
    <!-- Generator: Sketch 48.2 (47327) - http://www.bohemiancoding.com/sketch -->
    <desc>Created with Sketch.</desc>
    <defs></defs>
    <g id="Page-1" stroke="none" stroke-width="1" fill="none" fill-rule="evenodd">
        <g id="b001b001" fill-rule="nonzero">
            <path d="M23,29 C24.169,29 25.296,28.831 26.373,28.542 C24.024,32.977 19.367,36 14,36 C6.268,36 0,29.732 0,22 C0,14.7 5.588,8.712 12.719,8.064 C11.021,10.262 10,13.009 10,16 C10,23.18 15.82,29 23,29 Z M20.5,9 L19.907,7.617 C19.806,7.382 19.618,7.193 19.383,7.093 L18,6.5 L19.383,5.907 C19.618,5.806 19.807,5.618 19.907,5.383 L20.5,4 L21.093,5.383 C21.194,5.618 21.382,5.807 21.617,5.907 L23,6.5 L21.617,7.093 C21.382,7.194 21.193,7.382 21.093,7.617 L20.5,9 Z M29.5,16.5 L28.315,13.735 C28.113,13.263 27.736,12.886 27.264,12.684 L24.499,11.499 L27.264,10.314 C27.736,10.112 28.113,9.735 28.315,9.263 L29.5,6.498 L30.685,9.263 C30.887,9.735 31.264,10.112 31.736,10.314 L34.501,11.499 L31.736,12.684 C31.264,12.886 30.887,13.263 30.685,13.735 L29.5,16.5 Z" id="Clear-Night-Icon" fill="#F8E71C"></path>
            <path d="M25.4545455,5.17391305 C25.209091,5.17391305 24.9677273,5.18869565 24.7288181,5.21234783 C23.7707273,2.20408695 20.7066364,0 17.0681818,0 C12.6622727,0 9.09090909,3.22630435 9.09090909,7.20652174 C9.09090909,7.53913043 9.12445455,7.86508695 9.17354546,8.18586957 C6.81227273,8.50739131 5,10.3426522 5,12.5652174 C5,15.0139565 7.19845454,17 9.90909091,17 L25.4545455,17 C29.0692727,17 32,14.3524348 32,11.0869565 C32,7.82147826 29.0692727,5.17391305 25.4545455,5.17391305 Z" id="Mostly-Cloudy-Icon" fill="#FFFFFF" opacity="0.796025815"></path>
        </g>
    </g>
</svg>