
<svg width="35px" height="32px" viewBox="0 0 35 32" version="1.1" xmlns="http://www.w3.org/2000/svg" xmlns:xlink="http://www.w3.org/1999/xlink">
    <!-- Generator: Sketch 48.2 (47327) - http://www.bohemiancoding.com/sketch -->
    <desc>Created with Sketch.</desc>
    <defs></defs>
    <g id="Page-1" stroke="none" stroke-width="1" fill="none" fill-rule="evenodd">
        <g id="b002b002" fill-rule="nonzero">
            <path d="M23,25 C24.169,25 25.296,24.831 26.373,24.542 C24.024,28.977 19.367,32 14,32 C6.268,32 0,25.732 0,18 C0,10.7 5.588,4.712 12.719,4.064 C11.021,6.262 10,9.009 10,12 C10,19.18 15.82,25 23,25 Z M20.5,5 L19.907,3.617 C19.806,3.382 19.618,3.193 19.383,3.093 L18,2.5 L19.383,1.907 C19.618,1.806 19.807,1.618 19.907,1.383 L20.5,0 L21.093,1.383 C21.194,1.618 21.382,1.807 21.617,1.907 L23,2.5 L21.617,3.093 C21.382,3.194 21.193,3.382 21.093,3.617 L20.5,5 Z M29.5,12.5 L28.315,9.735 C28.113,9.263 27.736,8.886 27.264,8.684 L24.499,7.499 L27.264,6.314 C27.736,6.112 28.113,5.735 28.315,5.263 L29.5,2.498 L30.685,5.263 C30.887,5.735 31.264,6.112 31.736,6.314 L34.501,7.499 L31.736,8.684 C31.264,8.886 30.887,9.263 30.685,9.735 L29.5,12.5 Z" id="Clear-Night-Icon" fill="#F8E71C"></path>
            <path d="M26.1818182,17.8695652 C25.9636364,17.8695652 25.7490909,17.8834783 25.5367272,17.9057391 C24.6850909,15.0744348 21.9614546,13 18.7272727,13 C14.8109091,13 11.6363636,16.0365217 11.6363636,19.7826087 C11.6363636,20.0956522 11.6661818,20.4024348 11.7098182,20.7043478 C9.61090909,21.0069565 8,22.7342609 8,24.826087 C8,27.1307826 9.95418181,29 12.3636364,29 L26.1818182,29 C29.3949091,29 32,26.5081739 32,23.4347826 C32,20.3613913 29.3949091,17.8695652 26.1818182,17.8695652 Z" id="Mostly-Cloudy-Icon" fill="#FFFFFF" opacity="0.501132246"></path>
        </g>
    </g>
</svg>