
<svg width="38px" height="35px" viewBox="0 0 38 35" version="1.1" xmlns="http://www.w3.org/2000/svg" xmlns:xlink="http://www.w3.org/1999/xlink">
    <!-- Generator: Sketch 48.2 (47327) - http://www.bohemiancoding.com/sketch -->
    <desc>Created with Sketch.</desc>
    <defs></defs>
    <g id="Page-1" stroke="none" stroke-width="1" fill="none" fill-rule="evenodd">
        <g id="b001b001" fill-rule="nonzero">
            <path d="M28,21 C29.169,21 30.296,20.831 31.373,20.542 C29.024,24.977 24.367,28 19,28 C11.268,28 5,21.732 5,14 C5,6.7 10.588,0.712 17.719,0.064 C16.021,2.262 15,5.009 15,8 C15,15.18 20.82,21 28,21 Z" id="Clear-Night-Icon" fill="#F8E71C"></path>
            <rect id="Rectangle-path" fill="#FFFFFF" opacity="0.8" x="0" y="21" width="5" height="2"></rect>
            <rect id="Rectangle-path" fill="#FFFFFF" opacity="0.8" x="0" y="25" width="8" height="2"></rect>
            <rect id="Rectangle-path" fill="#FFFFFF" opacity="0.8" x="0" y="29" width="38" height="2"></rect>
            <rect id="Rectangle-path" fill="#FFFFFF" opacity="0.8" x="0" y="33" width="38" height="2"></rect>
            <rect id="Rectangle-path" fill="#FFFFFF" opacity="0.8" x="30" y="25" width="8" height="2"></rect>
            <rect id="Rectangle-path" fill="#FFFFFF" opacity="0.8" x="33" y="21" width="5" height="2"></rect>
        </g>
    </g>
</svg>