
<svg width="40px" height="41px" viewBox="0 0 40 41" version="1.1" xmlns="http://www.w3.org/2000/svg" xmlns:xlink="http://www.w3.org/1999/xlink">
    <!-- Generator: Sketch 48.2 (47327) - http://www.bohemiancoding.com/sketch -->
    <desc>Created with Sketch.</desc>
    <defs></defs>
    <g id="Page-1" stroke="none" stroke-width="1" fill="none" fill-rule="evenodd">
        <g id="a014a014" fill="#FFFFFF">
            <path d="M3.366,32.098 L1.634,31.098 L2.634,29.366 L0.902,28.366 L1.902,26.634 L3.634,27.634 L4.634,25.902 L6.366,26.902 L5.366,28.634 L7.098,29.634 L6.098,31.366 L4.366,30.366 L3.366,32.098 Z M13.17,40.098 L11.438,39.098 L12.438,37.366 L10.706,36.366 L11.706,34.634 L13.438,35.634 L14.438,33.902 L16.17,34.902 L15.17,36.634 L16.902,37.634 L15.902,39.366 L14.17,38.366 L13.17,40.098 Z M26.366,39.098 L24.634,38.098 L25.634,36.366 L23.902,35.366 L24.902,33.634 L26.634,34.634 L27.634,32.902 L29.366,33.902 L28.366,35.634 L30.098,36.634 L29.098,38.366 L27.366,37.366 L26.366,39.098 Z M35.366,31.098 L33.634,30.098 L34.634,28.366 L32.902,27.366 L33.902,25.634 L35.634,26.634 L36.634,24.902 L38.366,25.902 L37.366,27.634 L39.098,28.634 L38.098,30.366 L36.366,29.366 L35.366,31.098 Z" id="Shape" fill-rule="nonzero"></path>
            <path d="M34.6666667,4.56521739 C34.4666667,4.56521739 34.27,4.57826087 34.0753333,4.59913043 C33.2946667,1.94478261 30.798,0 27.8333333,0 C24.2433333,0 21.3333333,2.84673913 21.3333333,6.35869565 C21.3333333,6.65217391 21.3606667,6.93978261 21.4006667,7.22282609 C19.4766667,7.50652174 18,9.12586957 18,11.0869565 C18,13.2476087 19.7913333,15 22,15 L34.6666667,15 C37.612,15 40,12.663913 40,9.7826087 C40,6.90130435 37.612,4.56521739 34.6666667,4.56521739 Z" id="Mostly-Cloudy-Icon" fill-rule="nonzero" opacity="0.8"></path>
            <path d="M28,7 C27.7,7 27.405,7.02 27.113,7.052 C25.942,2.982 22.197,0 17.75,0 C12.365,0 8,4.365 8,9.75 C8,10.2 8.041,10.641 8.101,11.075 C5.215,11.51 3,13.993 3,17 C3,20.313 5.687,23 9,23 L28,23 C32.418,23 36,19.418 36,15 C36,10.582 32.418,7 28,7 Z" id="Mostly-Cloudy-Icon" fill-rule="nonzero" opacity="0.8"></path>
            <text id="100" font-family="Helvetica" font-size="10" font-weight="normal" letter-spacing="0.12">
                <tspan x="11.4777148" y="32">600</tspan>
            </text>
        </g>
    </g>
</svg>