
<svg width="37px" height="36px" viewBox="0 0 37 36" version="1.1" xmlns="http://www.w3.org/2000/svg" xmlns:xlink="http://www.w3.org/1999/xlink">
    <!-- Generator: Sketch 48.2 (47327) - http://www.bohemiancoding.com/sketch -->
    <desc>Created with Sketch.</desc>
    <defs></defs>
    <g id="Page-1" stroke="none" stroke-width="1" fill="none" fill-rule="evenodd">
        <g id="a014a014" fill="#FFFFFF" fill-rule="nonzero">
            <path d="M3.366,32.098 L1.634,31.098 L2.634,29.366 L0.902,28.366 L1.902,26.634 L3.634,27.634 L4.634,25.902 L6.366,26.902 L5.366,28.634 L7.098,29.634 L6.098,31.366 L4.366,30.366 L3.366,32.098 Z M12.17,35.098 L10.438,34.098 L11.438,32.366 L9.706,31.366 L10.706,29.634 L12.438,30.634 L13.438,28.902 L15.17,29.902 L14.17,31.634 L15.902,32.634 L14.902,34.366 L13.17,33.366 L12.17,35.098 Z M21.366,32.098 L19.634,31.098 L20.634,29.366 L18.902,28.366 L19.902,26.634 L21.634,27.634 L22.634,25.902 L24.366,26.902 L23.366,28.634 L25.098,29.634 L24.098,31.366 L22.366,30.366 L21.366,32.098 Z M30.366,31.098 L28.634,30.098 L29.634,28.366 L27.902,27.366 L28.902,25.634 L30.634,26.634 L31.634,24.902 L33.366,25.902 L32.366,27.634 L34.098,28.634 L33.098,30.366 L31.366,29.366 L30.366,31.098 Z" id="Shape"></path>
            <path d="M31.6666667,4.56521739 C31.4666667,4.56521739 31.27,4.57826087 31.0753333,4.59913043 C30.2946667,1.94478261 27.798,0 24.8333333,0 C21.2433333,0 18.3333333,2.84673913 18.3333333,6.35869565 C18.3333333,6.65217391 18.3606667,6.93978261 18.4006667,7.22282609 C16.4766667,7.50652174 15,9.12586957 15,11.0869565 C15,13.2476087 16.7913333,15 19,15 L31.6666667,15 C34.612,15 37,12.663913 37,9.7826087 C37,6.90130435 34.612,4.56521739 31.6666667,4.56521739 Z" id="Mostly-Cloudy-Icon" opacity="0.8"></path>
            <path d="M25,7 C24.7,7 24.405,7.02 24.113,7.052 C22.942,2.982 19.197,0 14.75,0 C9.365,0 5,4.365 5,9.75 C5,10.2 5.041,10.641 5.101,11.075 C2.215,11.51 0,13.993 0,17 C0,20.313 2.687,23 6,23 L25,23 C29.418,23 33,19.418 33,15 C33,10.582 29.418,7 25,7 Z" id="Mostly-Cloudy-Icon" opacity="0.8"></path>
        </g>
    </g>
</svg>