
<svg width="43px" height="45px" viewBox="0 0 43 45" version="1.1" xmlns="http://www.w3.org/2000/svg" xmlns:xlink="http://www.w3.org/1999/xlink">
    <!-- Generator: Sketch 48.2 (47327) - http://www.bohemiancoding.com/sketch -->
    <desc>Created with Sketch.</desc>
    <defs></defs>
    <g id="Page-1" stroke="none" stroke-width="1" fill="none" fill-rule="evenodd">
        <g id="a006a006" fill-rule="nonzero">
            <path d="M11.464,39.196 L9.732,38.196 L10.732,36.464 L9,35.464 L10,33.732 L11.732,34.732 L12.732,33 L14.464,34 L13.464,35.732 L15.196,36.732 L14.196,38.464 L12.464,37.464 L11.464,39.196 Z M19.464,44.196 L17.732,43.196 L18.732,41.464 L17,40.464 L18,38.732 L19.732,39.732 L20.732,38 L22.464,39 L21.464,40.732 L23.196,41.732 L22.196,43.464 L20.464,42.464 L19.464,44.196 Z M29.464,41.196 L27.732,40.196 L28.732,38.464 L27,37.464 L28,35.732 L29.732,36.732 L30.732,35 L32.464,36 L31.464,37.732 L33.196,38.732 L32.196,40.464 L30.464,39.464 L29.464,41.196 Z M38.464,38.196 L36.732,37.196 L37.732,35.464 L36,34.464 L37,32.732 L38.732,33.732 L39.732,32 L41.464,33 L40.464,34.732 L42.196,35.732 L41.196,37.464 L39.464,36.464 L38.464,38.196 Z" id="Shape" fill="#FFFFFF"></path>
            <path d="M40,24.5 C40,20.358 36.643,17 32.5,17 C32.352,17 32.207,17.014 32.061,17.022 C30.915,13.526 27.629,11 23.75,11 C18.918,11 15,14.918 15,19.75 C15,19.864 15.013,19.975 15.017,20.088 C12.172,20.558 10,23.023 10,26 C10,29.313 12.687,32 16,32 L33,32 L33,31.975 C36.908,31.717 40,28.474 40,24.5 Z" id="Shape" fill="#FFFFFF" opacity="0.8"></path>
            <path d="M14,0 L16,0 L16,5 L14,5 L14,0 Z M7.0410897e-07,16.0000007 L7.0410897e-07,14.0000007 L5.0000007,14.0000007 L5.0000007,16.0000007 L7.0410897e-07,16.0000007 Z M3.4798362,5.10365 L4.8940362,3.68945 L8.4295362,7.22495 L7.0153362,8.63915 L3.4798362,5.10365 Z M5.1037638,26.52145 L3.6895638,25.10725 L7.2250638,21.57175 L8.6392638,22.98595 L5.1037638,26.52145 Z M22.7813362,8.84185 L21.3671362,7.42765 L24.9026362,3.89215 L26.3168362,5.30635 L22.7813362,8.84185 Z M10.42,20.286 C8.94,19.002 8,17.113 8,14.999 C8,11.133 11.134,7.999 15,7.999 C16.803,7.999 18.441,8.687 19.682,9.806 C16.119,11.27 13.505,14.589 13.066,18.559 C12.058,18.953 11.172,19.554 10.42,20.286 Z" id="Rectangle-path" fill="#FCDE00"></path>
        </g>
    </g>
</svg>