
<svg width="43px" height="52px" viewBox="0 0 43 52" version="1.1" xmlns="http://www.w3.org/2000/svg" xmlns:xlink="http://www.w3.org/1999/xlink">
    <!-- Generator: Sketch 48.2 (47327) - http://www.bohemiancoding.com/sketch -->
    <desc>Created with Sketch.</desc>
    <defs></defs>
    <g id="Page-1" stroke="none" stroke-width="1" fill="none" fill-rule="evenodd">
        <g id="c3031c3031" fill-rule="nonzero">
            <polygon id="Shape" fill="#FFFFFF" points="35.71 33.618 33.951 32.666 34.903 30.907 33.145 29.955 32.192 31.714 27.984 29.437 32.039 26.897 33.102 28.592 34.796 27.53 33.734 25.836 35.43 24.774 34.368 23.079 32.673 24.141 31.611 22.445 29.916 23.507 30.978 25.202 27 27.693 27 23 29 23 29 21 27 21 27 19 25 19 25 21 23 21 23 23 25 23 25 27.821 20.76 25.526 21.711 23.768 19.952 22.815 19 24.575 17.241 23.623 16.29 25.382 18.049 26.334 17.097 28.093 18.855 29.045 19.808 27.285 24.016 29.562 19.961 32.103 18.898 30.407 17.204 31.469 18.266 33.164 16.57 34.226 17.632 35.921 19.327 34.859 20.389 36.554 22.084 35.492 21.022 33.798 25 31.306 25 36 23 36 23 38 25 38 25 40 27 40 27 38 29 38 29 36 27 36 27 31.178 31.24 33.473 30.289 35.232 32.048 36.184 33 34.425 34.759 35.377"></polygon>
            <path d="M35,17 C34.7,17 34.405,17.02 34.113,17.052 C32.942,12.981 29.197,10 24.75,10 C19.365,10 15,14.365 15,19.75 C15,20.2 15.041,20.641 15.101,21.074 C12.215,21.51 10,23.993 10,27 C10,29.919 12.085,32.348 14.846,32.887 C15.149,32.564 15.225,32.076 14.979,31.684 L14.978,31.683 C14.685,31.215 14.827,30.599 15.295,30.305 L16.077,29.816 L15.265,29.376 C14.78,29.113 14.599,28.507 14.862,28.022 L14.863,28.021 C15.126,27.536 14.945,26.929 14.46,26.667 C13.975,26.403 13.794,25.797 14.057,25.312 L14.533,24.433 L15.484,22.674 L15.96,21.794 C16.223,21.308 16.829,21.127 17.315,21.39 L18.195,21.867 L18.195,21.866 L18.672,20.987 C18.935,20.501 19.541,20.321 20.026,20.584 L20.906,21.06 L21.002,21.112 L21.002,21 L21.002,19.999 C21.002,19.447 21.449,19 22.002,19 C22.555,19 23.002,18.553 23.002,18 L23.002,17.999 C23.002,17.447 23.449,17 24.002,17 L25.002,17 L27.002,17 L28.002,17 C28.555,17 29.002,17.447 29.002,17.999 L29.002,18 C29.002,18.553 29.449,19 30.002,19 C30.555,19 31.002,19.447 31.002,19.999 L31.002,20.469 L31.4,20.22 C31.868,19.927 32.484,20.069 32.777,20.536 L33.308,21.384 L34.156,20.853 C34.625,20.56 35.241,20.703 35.534,21.17 L36.065,22.018 L37.127,23.713 L37.658,24.561 C37.951,25.029 37.808,25.646 37.341,25.939 C36.873,26.232 36.731,26.849 37.024,27.317 L37.025,27.317 C37.318,27.785 37.176,28.402 36.708,28.695 L35.926,29.185 L36.738,29.624 C37.223,29.887 37.404,30.494 37.141,30.979 L37.14,30.98 C36.877,31.465 37.058,32.072 37.543,32.334 C37.625,32.378 37.684,32.443 37.748,32.505 C40.811,31.384 43.002,28.451 43.002,24.999 C43,20.582 39.418,17 35,17 Z" id="Shape" fill="#FFFFFF" opacity="0.8"></path>
            <path d="M26.9262588,50.4389786 L32.8499088,40.5823286 L34.3498338,41.4837536 L28.4261838,51.3404036 L26.9262588,50.4389786 Z M36.0445476,43.710935 L40.1001726,36.960485 L41.6002726,37.861735 L37.5446476,44.612185 L36.0445476,43.710935 Z M13.0770448,50.429533 L17.7129448,42.715633 L19.2128698,43.617058 L14.5769698,51.330958 L13.0770448,50.429533 Z M11.6342832,43.0772421 L15.1112082,37.2911421 L16.6113082,38.1925671 L13.1343832,43.9786671 L11.6342832,43.0772421 Z M21.074293,48.5275982 L23.907343,43.8135482 L25.407268,44.7149732 L22.574218,49.4290232 L21.074293,48.5275982 Z" id="Rectangle-path" fill="#5AC8FA"></path>
            <path d="M14,0 L16,0 L16,5 L14,5 L14,0 Z M7.0410897e-07,16.0000007 L7.0410897e-07,14.0000007 L5.0000007,14.0000007 L5.0000007,16.0000007 L7.0410897e-07,16.0000007 Z M3.4798362,5.10365 L4.8940362,3.68945 L8.4295362,7.22495 L7.0153362,8.63915 L3.4798362,5.10365 Z M5.1037638,26.52145 L3.6895638,25.10725 L7.2250638,21.57175 L8.6392638,22.98595 L5.1037638,26.52145 Z M22.7813362,8.84185 L21.3671362,7.42765 L24.9026362,3.89215 L26.3168362,5.30635 L22.7813362,8.84185 Z M10.42,20.286 C8.94,19.002 8,17.113 8,14.999 C8,11.133 11.134,7.999 15,7.999 C16.803,7.999 18.441,8.687 19.682,9.806 C16.119,11.27 13.505,14.589 13.066,18.559 C12.058,18.953 11.172,19.554 10.42,20.286 Z" id="Rectangle-path" fill="#FCDE00"></path>
        </g>
    </g>
</svg>