
<svg width="38px" height="50px" viewBox="0 0 38 50" version="1.1" xmlns="http://www.w3.org/2000/svg" xmlns:xlink="http://www.w3.org/1999/xlink">
    <!-- Generator: Sketch 48.2 (47327) - http://www.bohemiancoding.com/sketch -->
    <desc>Created with Sketch.</desc>
    <defs></defs>
    <g id="Page-1" stroke="none" stroke-width="1" fill="none" fill-rule="evenodd">
        <g id="b005b005" fill-rule="nonzero">
            <path d="M6.5,8 L5.907,6.617 C5.806,6.382 5.618,6.193 5.383,6.093 L4,5.5 L5.383,4.907 C5.618,4.806 5.807,4.618 5.907,4.383 L6.5,3 L7.093,4.383 C7.194,4.618 7.382,4.807 7.618,4.907 L9,5.5 L7.618,6.093 C7.382,6.194 7.193,6.382 7.093,6.617 L6.5,8 Z" id="Shape" fill="#F8E71C"></path>
            <path d="M2.5,15.5 L2.026,14.395 C1.945,14.206 1.795,14.055 1.605,13.974 L0.5,13.5 L1.605,13.026 C1.794,12.945 1.945,12.795 2.026,12.605 L2.5,11.5 L2.974,12.605 C3.055,12.794 3.205,12.945 3.395,13.026 L4.5,13.5 L3.395,13.974 C3.206,14.055 3.055,14.205 2.974,14.395 L2.5,15.5 Z" id="Shape" fill="#F8E71C"></path>
            <path d="M27.413,13.043 C29.783,13.271 31.899,14.375 33.439,16.024 C35.837,14.763 37.561,12.393 37.921,9.592 C37.16,9.852 36.348,9.999 35.499,9.999 C31.356,9.999 27.999,6.642 27.999,2.499 C27.999,1.65 28.146,0.838 28.406,0.077 C24.545,0.573 21.498,3.657 21.059,7.536 C23.813,8.428 26.125,10.39 27.413,13.043 Z" id="Shape" fill="#F8E71C"></path>
            <polygon id="Shape" fill="#FFFFFF" points="27.71 31.618 25.951 30.666 26.903 28.907 25.145 27.955 24.192 29.715 19.984 27.438 24.039 24.897 25.102 26.592 26.796 25.531 25.734 23.836 27.43 22.774 26.368 21.079 24.673 22.141 23.611 20.445 21.916 21.508 22.978 23.202 19 25.693 19 21 21 21 21 19 19 19 19 17 17 17 17 19 15 19 15 21 17 21 17 25.822 12.76 23.527 13.711 21.768 11.952 20.816 11 22.575 9.241 21.623 8.29 23.382 10.049 24.334 9.097 26.093 10.855 27.045 11.808 25.285 16.016 27.562 11.961 30.103 10.898 28.408 9.204 29.469 10.266 31.164 8.57 32.226 9.632 33.921 11.327 32.859 12.389 34.555 14.084 33.492 13.022 31.798 17 29.307 17 34 15 34 15 36 17 36 17 38 19 38 19 36 21 36 21 34 19 34 19 29.178 23.24 31.473 22.289 33.232 24.048 34.184 25 32.425 26.759 33.377"></polygon>
            <path d="M27,15 C26.7,15 26.405,15.02 26.113,15.052 C24.942,10.981 21.197,8 16.75,8 C11.365,8 7,12.365 7,17.75 C7,18.2 7.041,18.641 7.101,19.074 C4.215,19.51 2,21.993 2,25 C2,27.919 4.085,30.348 6.846,30.887 C7.149,30.564 7.225,30.076 6.979,29.684 L6.978,29.684 C6.685,29.215 6.827,28.599 7.295,28.305 L8.077,27.816 L7.265,27.376 C6.78,27.114 6.599,26.507 6.862,26.022 L6.863,26.021 C7.126,25.536 6.945,24.929 6.46,24.667 C5.975,24.405 5.794,23.797 6.057,23.313 L6.533,22.433 L7.484,20.674 L7.96,19.794 C8.223,19.308 8.829,19.127 9.315,19.39 L10.195,19.867 L10.195,19.866 L10.672,18.987 C10.935,18.501 11.541,18.321 12.026,18.584 L12.906,19.06 L13.002,19.113 L13.002,19 L13.002,18 C13.002,17.447 13.449,17 14.002,17 C14.555,17 15.002,16.553 15.002,16 C15.002,15.447 15.449,15 16.002,15 L17.002,15 L19.002,15 L20.002,15 C20.555,15 21.002,15.447 21.002,16 C21.002,16.553 21.449,17 22.002,17 C22.555,17 23.002,17.447 23.002,18 L23.002,18.469 L23.4,18.22 C23.868,17.927 24.484,18.069 24.777,18.536 L25.308,19.385 L25.308,19.384 L26.156,18.854 C26.625,18.561 27.241,18.703 27.534,19.17 L28.065,20.018 L29.127,21.713 L29.658,22.561 C29.951,23.029 29.808,23.646 29.341,23.939 C28.873,24.232 28.731,24.849 29.024,25.317 L29.025,25.317 C29.318,25.786 29.176,26.402 28.708,26.696 L27.926,27.185 L28.738,27.625 C29.223,27.887 29.404,28.494 29.141,28.979 L29.14,28.98 C28.877,29.465 29.058,30.072 29.543,30.334 C29.625,30.378 29.684,30.444 29.748,30.505 C32.811,29.384 35.002,26.451 35.002,22.999 C35,18.582 31.418,15 27,15 Z" id="Shape" fill="#FFFFFF" opacity="0.5"></path>
            <path d="M18.9307588,48.4370786 L24.8544088,38.5804286 L26.3543338,39.4818536 L20.4306838,49.3385036 L18.9307588,48.4370786 Z M28.0432476,41.710435 L32.0988726,34.959985 L33.5989726,35.861235 L29.5433476,42.611685 L28.0432476,41.710435 Z M5.0815448,48.427533 L9.7174448,40.713633 L11.2173698,41.615058 L6.5814698,49.328958 L5.0815448,48.427533 Z M3.6299832,41.0733421 L7.1069082,35.2872421 L8.6070082,36.1886671 L5.1300832,41.9747671 L3.6299832,41.0733421 Z M13.078893,46.5255982 L15.911943,41.8115482 L17.411868,42.7129732 L14.578818,47.4270232 L13.078893,46.5255982 Z" id="Rectangle-path" fill="#5AC8FA"></path>
        </g>
    </g>
</svg>