
<svg width="32px" height="34px" viewBox="0 0 32 34" version="1.1" xmlns="http://www.w3.org/2000/svg" xmlns:xlink="http://www.w3.org/1999/xlink">
    <!-- Generator: Sketch 48.2 (47327) - http://www.bohemiancoding.com/sketch -->
    <desc>Created with Sketch.</desc>
    <defs></defs>
    <g id="Page-1" stroke="none" stroke-width="1" fill="none" fill-rule="evenodd">
        <g id="c8107a030" fill-rule="nonzero">
            <path d="M16.0231676,16.5852625 C16.8375625,16.5852625 17.6226978,16.4675271 18.373,16.2661925 C16.7365469,19.3558772 13.4922038,21.4618787 9.75323247,21.4618787 C4.36666151,21.4618787 0,17.0952172 0,11.7086463 C0,6.62303219 3.89293308,2.45143533 8.8608117,2 C7.67788393,3.5312575 6.96659462,5.44498104 6.96659462,7.52868949 C6.96659462,12.5307044 11.0211527,16.5852625 16.0231676,16.5852625 Z" id="Clear-Night-Icon" fill="#F8E71C"></path>
            <path d="M25,22.142 L25,19 L23,19 L23,22.142 C21.277,22.588 20,24.139 20,26 C20,28.209 21.791,30 24,30 C26.209,30 28,28.209 28,26 C28,24.139 26.723,22.588 25,22.142 Z" id="Shape" fill="#5AC8FA"></path>
            <path d="M29,19.767 L29,5 C29,2.238 26.762,0 24,0 C21.238,0 19,2.238 19,5 L19,19.767 C17.173,21.233 16,23.481 16,26 C16,30.411 19.589,34 24,34 C28.411,34 32,30.411 32,26 C32,23.48 30.827,21.232 29,19.767 Z M24,32 C20.687,32 18,29.313 18,26 C18,23.78 19.208,21.848 21,20.81 L21,5 C21,3.346 22.346,2 24,2 C25.654,2 27,3.346 27,5 L27,20.81 C28.792,21.848 30,23.781 30,26 C30,29.313 27.313,32 24,32 Z" id="Shape" fill="#FFFFFF"></path>
        </g>
    </g>
</svg>