
<svg width="48px" height="42px" viewBox="0 0 48 42" version="1.1" xmlns="http://www.w3.org/2000/svg" xmlns:xlink="http://www.w3.org/1999/xlink">
    <!-- Generator: Sketch 48.2 (47327) - http://www.bohemiancoding.com/sketch -->
    <desc>Created with Sketch.</desc>
    <defs></defs>
    <g id="Page-1" stroke="none" stroke-width="1" fill="none" fill-rule="evenodd">
        <g id="a003a003" fill-rule="nonzero">
            <path d="M17,33 C12.581722,33 9,29.418278 9,25 C9,20.581722 12.581722,17 17,17 C21.418278,17 25,20.581722 25,25 C25,29.418278 21.418278,33 17,33 Z M16,8 L18,8 L18,14 L16,14 L16,8 Z M16,36 L18,36 L18,42 L16,42 L16,36 Z M7.00000001e-07,26.0000007 L7.00000001e-07,24.0000007 L6.0000007,24.0000007 L6.0000007,26.0000007 L7.00000001e-07,26.0000007 Z M28.0000007,26.0000007 L28.0000007,24.0000007 L34.0000007,24.0000007 L34.0000007,26.0000007 L28.0000007,26.0000007 Z M4.7725968,14.38785 L6.1867968,12.97365 L9.7222968,16.50915 L8.3080968,17.92335 L4.7725968,14.38785 Z M23.8643032,33.48065 L25.2785032,32.06645 L28.8140032,35.60195 L27.3998032,37.01615 L23.8643032,33.48065 Z M6.3878032,37.22695 L4.9736032,35.81275 L8.5091032,32.27725 L9.9233032,33.69145 L6.3878032,37.22695 Z M25.4806968,18.13705 L24.0664968,16.72285 L27.6019968,13.18735 L29.0161968,14.60155 L25.4806968,18.13705 Z" id="Mostly-Sunny-Icon" fill="#FCDE00"></path>
            <path d="M43,35.2142857 C43,31.4658571 39.9787,28.4285714 36.25,28.4285714 C36.1168,28.4285714 35.9863,28.4412381 35.8549,28.4484762 C34.8235,25.2854286 31.8661,23 28.375,23 C24.0262,23 20.5,26.5448571 20.5,30.9166667 C20.5,31.0198095 20.5117,31.1202381 20.5153,31.2224762 C17.9548,31.6477143 16,33.8770476 16,36.5714286 C16,39.5689048 18.4183,42 21.4,42 L36.7,42 L36.7,41.977381 C40.2172,41.7439524 43,38.8098095 43,35.2142857 Z" id="Shape" fill="#FFFFFF" opacity="0.8"></path>
            <g id="ice" transform="translate(35.000000, 0.000000)">
                <path d="M7.375,18.5707273 L7.375,16 L5.625,16 L5.625,18.5707273 C4.117375,18.9356364 3,20.2046364 3,21.7272727 C3,23.5346364 4.567125,25 6.5,25 C8.432875,25 10,23.5346364 10,21.7272727 C10,20.2046364 8.882625,18.9356364 7.375,18.5707273 Z" id="Shape" fill="#5AC8FA"></path>
                <path d="M10.5625,16.2787059 L10.5625,4.11764706 C10.5625,1.84305882 8.744125,0 6.5,0 C4.255875,0 2.4375,1.84305882 2.4375,4.11764706 L2.4375,16.2787059 C0.9530625,17.486 0,19.3372941 0,21.4117647 C0,25.0443529 2.9160625,28 6.5,28 C10.0839375,28 13,25.0443529 13,21.4117647 C13,19.3364706 12.0469375,17.4851765 10.5625,16.2787059 Z M6.5,26.3529412 C3.8081875,26.3529412 1.625,24.1401176 1.625,21.4117647 C1.625,19.5835294 2.6065,17.9916471 4.0625,17.1376471 L4.0625,4.11764706 C4.0625,2.75552941 5.156125,1.64705882 6.5,1.64705882 C7.843875,1.64705882 8.9375,2.75552941 8.9375,4.11764706 L8.9375,17.1376471 C10.3935,17.9916471 11.375,19.5843529 11.375,21.4117647 C11.375,24.1401176 9.1918125,26.3529412 6.5,26.3529412 Z" id="Shape" fill="#FFFFFF"></path>
            </g>
        </g>
    </g>
</svg>