
<svg width="47px" height="34px" viewBox="0 0 47 34" version="1.1" xmlns="http://www.w3.org/2000/svg" xmlns:xlink="http://www.w3.org/1999/xlink">
    <!-- Generator: Sketch 48.2 (47327) - http://www.bohemiancoding.com/sketch -->
    <desc>Created with Sketch.</desc>
    <defs></defs>
    <g id="Page-1" stroke="none" stroke-width="1" fill="none" fill-rule="evenodd">
        <g id="c8110a033" fill-rule="nonzero">
            <g id="Page-1" opacity="0.8" fill="#FFFFFF">
                <g id="a013a013" opacity="0.802706069">
                    <g id="Page-1">
                        <path d="M25,7 C24.7,7 24.405,7.02 24.113,7.052 C22.942,2.982 19.197,0 14.75,0 C9.365,0 5,4.365 5,9.75 C5,10.2 5.041,10.641 5.101,11.075 C2.215,11.51 0,13.993 0,17 C0,20.313 2.687,23 6,23 L25,23 C29.418,23 33,19.418 33,15 C33,10.582 29.418,7 25,7 Z" id="Mostly-Cloudy-Icon"></path>
                    </g>
                </g>
            </g>
            <path d="M40,22.142 L40,19 L38,19 L38,22.142 C36.277,22.588 35,24.139 35,26 C35,28.209 36.791,30 39,30 C41.209,30 43,28.209 43,26 C43,24.139 41.723,22.588 40,22.142 Z" id="Shape" fill="#5AC8FA"></path>
            <path d="M44,19.767 L44,5 C44,2.238 41.762,0 39,0 C36.238,0 34,2.238 34,5 L34,19.767 C32.173,21.233 31,23.481 31,26 C31,30.411 34.589,34 39,34 C43.411,34 47,30.411 47,26 C47,23.48 45.827,21.232 44,19.767 Z M39,32 C35.687,32 33,29.313 33,26 C33,23.78 34.208,21.847 36,20.81 L36,5 C36,3.346 37.346,2 39,2 C40.654,2 42,3.346 42,5 L42,20.81 C43.792,21.847 45,23.781 45,26 C45,29.313 42.313,32 39,32 Z" id="Shape" fill="#FFFFFF"></path>
        </g>
    </g>
</svg>