
<svg width="41px" height="43px" viewBox="0 0 41 43" version="1.1" xmlns="http://www.w3.org/2000/svg" xmlns:xlink="http://www.w3.org/1999/xlink">
    <!-- Generator: Sketch 48.2 (47327) - http://www.bohemiancoding.com/sketch -->
    <desc>Created with Sketch.</desc>
    <defs></defs>
    <g id="Page-1" stroke="none" stroke-width="1" fill="none" fill-rule="evenodd">
        <g id="c1001c1001" fill-rule="nonzero">
            <path d="M2.464,40.196 L0.732,39.196 L1.732,37.464 L0,36.464 L1,34.732 L2.732,35.732 L3.732,34 L5.464,35 L4.464,36.732 L6.196,37.732 L5.196,39.464 L3.464,38.464 L2.464,40.196 Z M11.268,42.196 L9.536,41.196 L10.536,39.464 L8.804,38.464 L9.804,36.732 L11.536,37.732 L12.536,36 L14.268,37 L13.268,38.732 L15,39.732 L14,41.464 L12.268,40.464 L11.268,42.196 Z M21.464,40.196 L19.732,39.196 L20.732,37.464 L19,36.464 L20,34.732 L21.732,35.732 L22.732,34 L24.464,35 L23.464,36.732 L25.196,37.732 L24.196,39.464 L22.464,38.464 L21.464,40.196 Z M30.464,41.196 L28.732,40.196 L29.732,38.464 L28,37.464 L29,35.732 L30.732,36.732 L31.732,35 L33.464,36 L32.464,37.732 L34.196,38.732 L33.196,40.464 L31.464,39.464 L30.464,41.196 Z" id="Shape" fill="#FFFFFF"></path>
            <path d="M5.701367,31.0693726 L9.742492,25.5074976 L11.157433,26.5355598 L7.116308,32.0974348 L5.701367,31.0693726 Z M22.1620117,31.6511069 L26.8652117,25.1791069 L28.2809617,26.2079319 L23.5777617,32.6799319 L22.1620117,31.6511069 Z M28.4886862,32.715845 L34.6605862,24.221345 L36.0763362,25.249995 L29.9044362,33.744495 L28.4886862,32.715845 Z M12.7628359,33.2962433 L17.6138359,26.6228183 L19.0294109,27.6518183 L14.1784109,34.3252433 L12.7628359,33.2962433 Z" id="Rectangle-path" fill="#5AC8FA"></path>
            <path d="M35.6666667,4.56521739 C35.4666667,4.56521739 35.27,4.57826087 35.0753333,4.59913043 C34.2946667,1.94478261 31.798,0 28.8333333,0 C25.2433333,0 22.3333333,2.84673913 22.3333333,6.35869565 C22.3333333,6.65217391 22.3606667,6.93978261 22.4006667,7.22282609 C20.4766667,7.50652174 19,9.12586957 19,11.0869565 C19,13.2476087 20.7913333,15 23,15 L35.6666667,15 C38.612,15 41,12.663913 41,9.7826087 C41,6.90130435 38.612,4.56521739 35.6666667,4.56521739 Z" id="Mostly-Cloudy-Icon" fill="#FFFFFF" opacity="0.8"></path>
            <path d="M29,7 C28.7,7 28.405,7.02 28.113,7.052 C26.942,2.982 23.197,0 18.75,0 C13.365,0 9,4.365 9,9.75 C9,10.2 9.041,10.641 9.101,11.075 C6.215,11.51 4,13.993 4,17 C4,20.313 6.687,23 10,23 L29,23 C33.418,23 37,19.418 37,15 C37,10.582 33.418,7 29,7 Z" id="Mostly-Cloudy-Icon" fill="#FFFFFF" opacity="0.8"></path>
        </g>
    </g>
</svg>